<?xml version="1.0" encoding="UTF-8"?>
<svg xmlns="http://www.w3.org/2000/svg" xmlns:xlink="http://www.w3.org/1999/xlink" width="24pt" height="24pt" viewBox="0 0 24 24" version="1.1">
<g id="surface13037280">
<path style=" stroke:none;fill-rule:nonzero;fill:rgb(20.392157%,59.607843%,85.882353%);fill-opacity:1;" d="M 11.5 0 C 10.117188 0 9 1.117188 9 2.5 L 9 4 L 5 4 C 3.894531 4 3 4.894531 3 6 L 3 9 C 3 9.550781 3.449219 10 4 10 L 4.355469 10 C 5.664062 10 6.855469 10.941406 6.984375 12.242188 C 7.136719 13.738281 5.964844 15 4.5 15 L 4 15 C 3.449219 15 3 15.449219 3 16 L 3 19 C 3 20.105469 3.894531 21 5 21 L 8 21 C 8.550781 21 9 20.550781 9 20 L 9 19.644531 C 9 18.335938 9.941406 17.144531 11.242188 17.015625 C 12.738281 16.863281 14 18.035156 14 19.5 L 14 20 C 14 20.550781 14.449219 21 15 21 L 18 21 C 19.105469 21 20 20.105469 20 19 L 20 15 L 21.5 15 C 22.882812 15 24 13.882812 24 12.5 C 24 11.117188 22.882812 10 21.5 10 L 20 10 L 20 6 C 20 4.894531 19.105469 4 18 4 L 14 4 L 14 2.5 C 14 1.117188 12.882812 0 11.5 0 Z M 11.5 0 "/>
</g>
</svg>
